<?xml version="1.0"?>
<svg xmlns="http://www.w3.org/2000/svg" xmlns:xlink="http://www.w3.org/1999/xlink" version="1.1" id="Capa_1" x="0px" y="0px" viewBox="0 0 480 480" style="enable-background:new 0 0 480 480;" xml:space="preserve" data-ember-extension="1" width="512px" height="512px" class=""><g><g>
	<g>
		<path d="M324.689,96V24c0-13.255-10.745-24-24-24h-208c-13.255,0-24,10.745-24,24v432c0,13.255,10.745,24,24,24h208    c13.255,0,24-10.745,24-24v-88h-16v48h-224V64h224v32H324.689z M308.689,432v24c0,4.418-3.582,8-8,8h-208c-4.418,0-8-3.582-8-8    v-24H308.689z M84.689,48V24c0-4.418,3.582-8,8-8h208c4.418,0,8,3.582,8,8v24H84.689z" data-original="#000000" class="active-path" data-old_color="#000000" fill="#21BA45"/>
	</g>
</g><g>
	<g>
		<rect x="172.689" y="24" width="64" height="16" data-original="#000000" class="active-path" data-old_color="#000000" fill="#21BA45"/>
	</g>
</g><g>
	<g>
		<rect x="140.689" y="24" width="16" height="16" data-original="#000000" class="active-path" data-old_color="#000000" fill="#21BA45"/>
	</g>
</g><g>
	<g>
		<rect x="252.689" y="24" width="16" height="16" data-original="#000000" class="active-path" data-old_color="#000000" fill="#21BA45"/>
	</g>
</g><g>
	<g>
		<rect x="172.689" y="440" width="48" height="16" data-original="#000000" class="active-path" data-old_color="#000000" fill="#21BA45"/>
	</g>
</g><g>
	<g>
		<path d="M407.585,155.2c-4.377-6.992-12.055-11.227-20.304-11.2H228.689c-4.418,0-8,3.582-8,8v96c0,4.418,3.582,8,8,8h138    c3.074-0.006,5.872-1.772,7.2-4.544l35.04-73.056C412.53,170.956,412.021,162.179,407.585,155.2z M394.505,171.448L361.649,240    h-124.96v-80h150.592c4.418,0.008,7.993,3.597,7.985,8.015c-0.002,1.191-0.27,2.367-0.785,3.441L394.505,171.448z" data-original="#000000" class="active-path" data-old_color="#000000" fill="#21BA45"/>
	</g>
</g><g>
	<g>
		<path d="M204.689,264V144c0-2.122-0.844-4.156-2.344-5.656l-36-36l-11.312,11.312l33.656,33.656V272c0,4.418,3.582,8,8,8h192v-16    H204.689z" data-original="#000000" class="active-path" data-old_color="#000000" fill="#21BA45"/>
	</g>
</g><g>
	<g>
		<path d="M228.689,288c-17.673,0-32,14.327-32,32c0,17.673,14.327,32,32,32c17.673,0,32-14.327,32-32    C260.689,302.327,246.362,288,228.689,288z M228.689,336c-8.837,0-16-7.163-16-16s7.163-16,16-16s16,7.163,16,16    S237.526,336,228.689,336z" data-original="#000000" class="active-path" data-old_color="#000000" fill="#21BA45"/>
	</g>
</g><g>
	<g>
		<path d="M348.689,288c-17.673,0-32,14.327-32,32c0,17.673,14.327,32,32,32c17.673,0,32-14.327,32-32    C380.689,302.327,366.362,288,348.689,288z M348.689,336c-8.837,0-16-7.163-16-16s7.163-16,16-16s16,7.163,16,16    S357.526,336,348.689,336z" data-original="#000000" class="active-path" data-old_color="#000000" fill="#21BA45"/>
	</g>
</g></g> </svg>
