<?xml version="1.0" encoding="UTF-8"?>
<!DOCTYPE svg  PUBLIC '-//W3C//DTD SVG 1.1//EN'  'http://www.w3.org/Graphics/SVG/1.1/DTD/svg11.dtd'>
<svg enable-background="new 0 0 47 47" version="1.1" viewBox="0 0 47 47" xml:space="preserve" xmlns="http://www.w3.org/2000/svg">

	
		
			<path d="M6.12,38.52V5.136h26.962v28.037l5.137-4.243V2.568C38.219,1.15,37.07,0,35.652,0h-32.1C2.134,0,0.985,1.15,0.985,2.568     v38.519c0,1.418,1.149,2.568,2.567,2.568h22.408L22.33,38.52H6.12z"/>
			<path d="m45.613 27.609c-0.473-0.446-1.2-0.467-1.698-0.057l-11.778 9.734-7.849-4.709c-0.521-0.312-1.188-0.219-1.603 0.229-0.412 0.444-0.457 1.117-0.106 1.613l8.506 12.037c0.238 0.337 0.625 0.539 1.037 0.543h0.012c0.408 0 0.793-0.193 1.035-0.525l12.6-17.173c0.38-0.521 0.315-1.246-0.156-1.692z"/>
			<path d="m27.306 8.988h-15.409c-1.418 0-2.567 1.15-2.567 2.568s1.149 2.568 2.567 2.568h15.408c1.418 0 2.566-1.15 2.566-2.568s-1.147-2.568-2.565-2.568z"/>
			<path d="m27.306 16.691h-15.409c-1.418 0-2.567 1.15-2.567 2.568s1.149 2.568 2.567 2.568h15.408c1.418 0 2.566-1.149 2.566-2.568 3e-3 -1.418-1.147-2.568-2.565-2.568z"/>
			<path d="m27.306 24.395h-15.409c-1.418 0-2.567 1.15-2.567 2.568s1.149 2.568 2.567 2.568h15.408c1.418 0 2.566-1.15 2.566-2.568 3e-3 -1.418-1.147-2.568-2.565-2.568z"/>
		
	
















</svg>
