<?xml version="1.0" encoding="UTF-8"?>
<svg version="1.1" viewBox="0 0 32 32" xmlns="http://www.w3.org/2000/svg">
<title>icon 40 clipboard list</title>
<desc>Created with Sketch.</desc>
<g fill-rule="evenodd">
<g >
<path d="m13 5v-1.0021c0-1.0997 0.89762-1.9979 2.0049-1.9979h0.99024c1.111 0 2.0049 0.8945 2.0049 1.9979v1.0021h2.0044c0.55074 0 0.99558 0.44725 0.99558 0.99896v1.0021c0 0.5563-0.44574 0.99896-0.99558 0.99896h-9.0088c-0.55074 0-0.99558-0.44725-0.99558-0.99896v-1.0021c0-0.5563 0.44574-0.99896 0.99558-0.99896h2.0044zm9 1h1.0026c1.1065 0 1.9974 0.89704 1.9974 2.0036v20.993c0 1.1138-0.89428 2.0036-1.9974 2.0036h-15.005c-1.1065 0-1.9974-0.89704-1.9974-2.0036v-20.993c0-1.1138 0.89428-2.0036 1.9974-2.0036h1.0026c-3.85e-6 0.0016267-5.77e-6 0.0032539-5.77e-6 0.0048815v0.99024c0 1.1073 0.89354 2.0049 2.0028 2.0049h8.9945c1.1061 0 2.0028-0.8939 2.0028-2.0049v-0.99024c0-0.0016276-1.9e-6 -0.0032548-5.8e-6 -0.0048815zm-6.5-1c0.27614 0 0.5-0.22386 0.5-0.5s-0.22386-0.5-0.5-0.5-0.5 0.22386-0.5 0.5 0.22386 0.5 0.5 0.5zm-1.5 9v1h8v-1h-8zm-5-1v3h3v-3h-3zm1 1v1h1v-1h-1zm-1 4v3h3v-3h-3zm1 1v1h1v-1h-1zm4 0v1h8v-1h-8zm-5 4v3h3v-3h-3zm1 1v1h1v-1h-1zm4 0v1h8v-1h-8z"/>
</g>
</g>
</svg>
