<?xml version="1.0" encoding="UTF-8"?>
<svg enable-background="new 0 0 469.333 469.333" version="1.1" viewBox="0 0 469.33 469.33" xml:space="preserve" xmlns="http://www.w3.org/2000/svg">

	
		
			<path d="m234.67 362.67c-70.72 0-128-57.28-128-128 0-21.653 5.44-41.92 14.827-59.84l-31.147-31.147c-16.534 26.453-26.347 57.493-26.347 90.987 0 94.293 76.373 170.67 170.67 170.67v64l85.333-85.334-85.333-85.333v64z"/>
			<path d="m234.67 64v-64l-85.333 85.333 85.333 85.333v-64c70.72 0 128 57.28 128 128 0 21.653-5.44 41.92-14.827 59.84l31.147 31.147c16.533-26.453 26.347-57.493 26.347-90.987-1e-3 -94.293-76.374-170.67-170.67-170.67z"/>
		
	
















</svg>
